<svg width="273" height="48" viewBox="0 0 273 48" fill="none" xmlns="http://www.w3.org/2000/svg">
<g filter="url(#filter0_d_1608_5313)">
<path fill-rule="evenodd" clip-rule="evenodd" d="M12.749 20.0142H13.6142C16.4573 20.0142 19.6397 19.432 19.6397 15.4606C19.6397 11.4891 16.46 10.9261 13.6142 10.9261H12.749V20.0142ZM31.8327 40.1871H21.0279L12.877 26.1499H12.7518V40.1871H4.11407V3.64795H17.0915C23.6428 3.64795 28.6558 7.0783 28.6558 14.8783C28.6558 19.8906 26.0853 24.2795 21.3673 25.1721L31.8355 40.1871H31.8327Z" fill="#F80715"/>
<path fill-rule="evenodd" clip-rule="evenodd" d="M43.5252 40.2284H34.868V11.7365H27.7047V3.7085H50.708L52.2046 11.7365H43.5252V40.2284Z" fill="#F80715"/>
<path fill-rule="evenodd" clip-rule="evenodd" d="M65.4406 25.9L73.4858 3.7085H82.9441L68.7037 40.2284H61.9632L47.976 3.7085H57.3926L65.4406 25.9Z" fill="#F80715"/>
<path fill-rule="evenodd" clip-rule="evenodd" d="M194.469 10.9262L190.825 26.5646H197.986L194.469 10.9262ZM188.424 33.8236L186.129 40.1872H176.944L189.771 3.68921H199.207L211.762 40.1872H202.515L200.345 33.8236H188.422H188.424Z" fill="#0368E3"/>
<path fill-rule="evenodd" clip-rule="evenodd" d="M240.687 19.8057C240.624 25.1091 240.267 29.6848 237.296 34.2384C234.03 39.2096 229.123 41.393 223.562 41.393C213.072 41.393 205.806 33.615 205.806 22.1127C205.806 10.6105 213.136 2.4397 223.838 2.4397C230.703 2.4397 236.014 5.85082 238.899 12.6731L230.662 16.4797C229.502 12.9862 226.953 10.6572 223.434 10.6572C217.79 10.6572 214.819 16.6253 214.819 22.1979C214.819 27.7705 218.274 33.9693 224.005 33.9693C227.732 33.9693 230.239 31.4947 230.598 27.2514H223.521V19.8057H240.687Z" fill="#0368E3"/>
<path fill-rule="evenodd" clip-rule="evenodd" d="M247.512 33.0958H249.451C254.633 33.0958 259.037 29.0392 259.037 21.9478C259.037 15.3974 255.117 10.9262 249.556 10.9262H247.512V33.0958ZM238.854 3.68921H251.114C260.425 3.68921 268.028 11.676 268.028 21.9478C268.028 32.2196 260.361 40.1872 251.114 40.1872H238.854V3.68921Z" fill="#0368E3"/>
<path fill-rule="evenodd" clip-rule="evenodd" d="M183.398 4.55163L75.2356 4.35938L75.1938 39.3468L183.442 39.388L183.398 4.55163Z" fill="#FFF200"/>
<path fill-rule="evenodd" clip-rule="evenodd" d="M99.3377 16.1169H86.5606L86.4966 19.7972H98.62V22.9337L86.4966 22.9969L86.5161 27.6933L99.8858 27.6109V30.6238H81.1693V12.563H99.3377V16.1169Z" fill="#F80715"/>
<path fill-rule="evenodd" clip-rule="evenodd" d="M109.82 12.563H104.704V26.4464C104.704 28.5859 107.672 30.5414 109.461 31.0605C111.061 31.5384 112.936 31.5384 114.491 31.5384C116.046 31.5384 117.985 31.4752 119.501 31.0825C121.437 30.5634 124.489 28.5887 124.489 26.4492L124.447 12.5657H119.289L119.267 25.8669C119.267 27.6137 116.321 28.1328 114.488 28.1328C112.655 28.1328 109.814 27.6137 109.814 25.8669V12.5657L109.82 12.563Z" fill="#F80715"/>
<path fill-rule="evenodd" clip-rule="evenodd" d="M167.585 16.1171C164.723 15.4304 161.521 15.8671 159.521 17.9243C157.732 19.7342 157.754 22.8707 158.911 24.9909C159.818 26.7157 161.607 27.5699 163.46 27.7566C166.492 28.0478 169.839 27.7154 171.502 24.8481C172.493 23.1645 172.387 20.8383 171.502 19.1739C170.659 17.5947 169.249 16.4933 167.585 16.1198V16.1171ZM176.785 18.3197C177.878 21.1678 177.711 24.9497 175.711 27.1524C171.691 31.5578 164.954 32.4504 159.376 30.624C156.26 29.5831 153.186 26.6526 152.83 23.2057C152.433 19.4431 154.032 16.1583 157.251 14.2467C161.524 11.6897 168.451 11.7941 172.765 14.2467C174.281 15.0981 176.09 16.5318 176.785 18.3197Z" fill="#F80715"/>
<path fill-rule="evenodd" clip-rule="evenodd" d="M139.733 20.3768H134.976V16.0127H139.733C141.586 16.0127 144.679 16.0127 144.679 18.1961C144.679 20.3796 141.586 20.3796 139.733 20.3796V20.3768ZM148.933 24.2219C148.532 22.975 147.144 22.1868 146.407 21.7693C148.891 21.3546 149.965 19.3167 149.965 17.0316C149.965 14.9114 147.545 12.7087 145.419 12.7087L129.145 12.6455V30.624H134.976V23.6809H139.733C140.765 23.6809 141.753 23.7633 142.47 24.0132C143.503 24.3235 143.775 25.1777 143.881 26.0483C143.987 27.5671 143.419 29.4347 144.387 30.6212H150.324V30.1433C148.115 29.0612 149.545 26.1307 148.936 24.2192L148.933 24.2219Z" fill="#F80715"/>
<path fill-rule="evenodd" clip-rule="evenodd" d="M184.126 3.7085H74.4733L74.515 40.1817H184.146L184.126 3.7085ZM75.6111 38.998L75.6528 4.70547H183.011L183.053 38.998H75.6111Z" fill="#F80715"/>
<path d="M174.871 7.47656C176.259 7.47656 177.383 8.57515 177.383 9.94565C177.383 11.3161 176.259 12.3928 174.871 12.3928C173.483 12.3928 172.359 11.3161 172.359 9.94565C172.359 8.57515 173.483 7.47656 174.871 7.47656ZM174.871 11.8215C175.92 11.8215 176.771 10.9701 176.771 9.94565C176.771 8.92121 175.92 8.0698 174.871 8.0698C173.822 8.0698 172.971 8.91022 172.971 9.94565C172.971 10.9811 173.822 11.8215 174.871 11.8215Z" fill="#F80715"/>
<path d="M173.969 8.6521H174.882C175.369 8.6521 175.847 8.85259 175.847 9.40463C175.847 9.77541 175.613 10.0171 175.249 10.0967L175.95 11.2201H175.383L174.773 10.1489H174.439V11.2201H173.972V8.65485L173.969 8.6521ZM174.812 9.77541C175.077 9.77541 175.38 9.704 175.38 9.39365C175.38 9.11351 175.107 9.0421 174.862 9.0421H174.437V9.77266H174.812V9.77541Z" fill="#F80715"/>
</g>
<defs>
<filter id="filter0_d_1608_5313" x="0" y="0.439697" width="272.028" height="47.0603" filterUnits="userSpaceOnUse" color-interpolation-filters="sRGB">
<feFlood flood-opacity="0" result="BackgroundImageFix"/>
<feColorMatrix in="SourceAlpha" type="matrix" values="0 0 0 0 0 0 0 0 0 0 0 0 0 0 0 0 0 0 127 0" result="hardAlpha"/>
<feOffset dy="2"/>
<feGaussianBlur stdDeviation="2"/>
<feComposite in2="hardAlpha" operator="out"/>
<feColorMatrix type="matrix" values="0 0 0 0 0 0 0 0 0 0 0 0 0 0 0 0 0 0 0.4 0"/>
<feBlend mode="normal" in2="BackgroundImageFix" result="effect1_dropShadow_1608_5313"/>
<feBlend mode="normal" in="SourceGraphic" in2="effect1_dropShadow_1608_5313" result="shape"/>
</filter>
</defs>
</svg>
