<svg width="186" height="64" viewBox="0 0 186 64" fill="none" xmlns="http://www.w3.org/2000/svg">
<g clip-path="url(#clip0_1222_102879)">
<path fill-rule="evenodd" clip-rule="evenodd" d="M186 58.0043C186.001 59.5768 185.378 61.0855 184.267 62.1988C183.157 63.312 181.65 63.9388 180.077 63.9413H5.92289C5.14407 63.9407 4.37301 63.7866 3.65377 63.4878C2.93454 63.1891 2.28122 62.7515 1.73117 62.2002C1.18112 61.6488 0.745113 60.9944 0.448071 60.2745C0.151029 59.5546 -0.00122705 58.7831 7.44726e-06 58.0043V5.99947C-0.00122705 5.22066 0.151029 4.44923 0.448071 3.72929C0.745113 3.00934 1.18112 2.35499 1.73117 1.80363C2.28122 1.25227 2.93454 0.814709 3.65377 0.515957C4.37301 0.217204 5.14407 0.0631162 5.92289 0.0625H180.077C181.65 0.0649896 183.157 0.691739 184.267 1.805C185.378 2.91826 186.001 4.42695 186 5.99947V58.0043Z" fill="url(#paint0_linear_1222_102879)"/>
<path fill-rule="evenodd" clip-rule="evenodd" d="M170.218 43.7394H163.873V26.0413H160.406V20.3297H173.84V26.0413H170.218V43.7394ZM146.17 43.7394V20.2546H157.865V25.844H152.445V29.099H157.339V34.6273H152.445V38.197H157.865V43.7394H146.17ZM125.973 43.7394V20.3297H131.948L137.053 34.3925L137.114 34.3314L136.372 26.2573V20.3297H142.441V43.7394H136.353L131.656 30.2028L131.591 30.2638L132.023 36.8772V43.7394H125.973ZM114.066 25.7923C113.058 25.7923 112.355 26.6002 111.957 28.2159C111.686 29.5542 111.563 30.9183 111.591 32.2835C111.56 33.6019 111.718 34.9179 112.061 36.1914C112.479 37.577 113.146 38.2722 114.076 38.2722H114.137C115.02 38.2722 115.673 37.5676 116.086 36.1491C116.424 34.8781 116.582 33.5657 116.556 32.2506C116.588 30.8772 116.452 29.5049 116.152 28.1643C115.738 26.5861 115.048 25.8158 114.08 25.8158M105.114 31.9735C105.114 28.075 106.003 25.0298 107.782 22.8379C108.468 21.9183 109.361 21.1727 110.388 20.6612C111.415 20.1496 112.548 19.8865 113.695 19.8929C114.975 19.8627 116.245 20.1318 117.403 20.679C118.561 21.2262 119.575 22.0362 120.365 23.0446C122.089 25.1394 122.948 27.9764 122.948 31.532C122.948 34.9044 122.289 37.7085 120.971 39.9443C119.342 42.7186 116.936 44.1058 113.752 44.1058C111.356 44.1058 109.357 43.0709 107.753 41.0011C105.997 38.7466 105.118 35.7358 105.118 31.9688M93.4512 31.1281C93.8541 31.1589 94.2589 31.1027 94.6382 30.9633C95.0174 30.8239 95.3623 30.6046 95.6494 30.3202C96.16 29.7395 96.4259 28.9837 96.3915 28.2113C96.4106 27.8292 96.3517 27.4473 96.2185 27.0888C96.0853 26.7303 95.8804 26.4026 95.6165 26.1258C95.3265 25.8573 94.9851 25.6502 94.613 25.517C94.2409 25.3839 93.8457 25.3273 93.4512 25.3508V31.1281ZM87.1666 43.7394V20.3297H93.2727C96.5919 20.3297 99.0171 20.956 100.548 22.2085C101.99 23.4016 102.714 25.2193 102.714 27.6382C102.768 29.043 102.463 30.4384 101.826 31.6917C101.212 32.7683 100.227 33.5847 99.0547 33.9885L103.794 43.7394H96.9457L93.4512 34.0825V43.7394H87.1666ZM83.4091 43.7394H77.1339V20.3297H83.4185L83.4091 43.7394ZM74.8324 43.7394H68.3036L67.6883 28.9909L65.0251 43.7394H59.896L57.6744 28.9909L56.9933 43.7394H50.2344L52.9774 20.3297H60.8119L62.6391 32.7485L64.8044 20.3297H72.606L74.8324 43.7394Z" fill="white"/>
<path fill-rule="evenodd" clip-rule="evenodd" d="M41.7048 20.2541C43.97 22.7951 45.4525 25.9366 45.974 29.3005C46.4955 32.6644 46.0336 36.1073 44.6441 39.2149C43.2546 42.3225 40.9966 44.9622 38.1419 46.8165C35.2871 48.6707 31.9574 49.6605 28.5533 49.6665C24.6622 49.6711 20.8813 48.375 17.8113 45.9841L26.2048 30.6955L22.9169 45.5379L33.0812 27.0647L29.7557 42.142L41.7048 20.2541ZM28.5533 14.3359C33.1432 14.3372 37.5497 16.1382 40.8265 19.3523H34.7768L33.9971 22.8891H27.9521L27.1677 26.4447H21.1556L16.9659 45.2937C14.2647 42.9293 12.348 39.7982 11.4709 36.3172C10.5939 32.8362 10.7981 29.1706 12.0565 25.8087C13.3149 22.4467 15.5677 19.5479 18.5148 17.4983C21.4619 15.4487 24.9635 14.3456 28.5533 14.3359Z" fill="white"/>
</g>
<defs>
<linearGradient id="paint0_linear_1222_102879" x1="92.6571" y1="0.536894" x2="92.6571" y2="63.5514" gradientUnits="userSpaceOnUse">
<stop stop-color="#3D80BC"/>
<stop offset="0.1" stop-color="#3D80BC"/>
<stop offset="1" stop-color="#283675"/>
</linearGradient>
<clipPath id="clip0_1222_102879">
<rect width="186" height="63.8788" fill="white" transform="translate(0 0.0605469)"/>
</clipPath>
</defs>
</svg>
