<svg width="145" height="84" viewBox="0 0 145 84" fill="none" xmlns="http://www.w3.org/2000/svg">
<path fill-rule="evenodd" clip-rule="evenodd" d="M33.9098 0.147304C28.2066 1.10802 24.9132 6.23182 25.8771 11.836L26.6325 16.1839C23.4194 14.6715 19.6885 14.112 15.6665 14.7879C4.45757 16.6181 -1.5358 26.7303 0.339985 37.849C2.17002 49.0136 11.0457 56.6091 22.2547 54.7789C27.2186 53.9447 31.1603 51.482 33.8464 48.0264C35.9512 50.288 39.0586 51.4651 42.5214 50.9304C42.6774 50.9041 42.8316 50.8748 42.984 50.8423C41.0436 54.9877 40.39 59.9051 41.2365 65.0214C43.272 77.3237 53.0954 85.7317 65.4852 83.6961C71.3309 82.7356 75.8961 79.7361 78.8693 75.5479C80.943 78.393 84.3927 79.9626 88.2931 79.3604C92.0336 78.7303 94.7375 76.3095 95.8836 73.1369C100.071 75.9231 105.372 77.1344 111.355 76.1272C116.915 75.1959 122.491 72.8195 125.826 69.7732C127.782 71.8703 130.569 73.1816 133.662 73.1816C139.579 73.1816 144.375 68.385 144.375 62.4681C144.375 59.337 143.032 56.5197 140.891 54.5608C141.803 52.6155 142.125 50.3313 141.738 47.9636L137.856 24.1284C136.824 18.332 131.958 14.2965 125.912 15.3237C119.94 16.2775 116.548 21.6337 117.507 27.5035L118.809 35.501C114.838 32.5845 109.754 31.1309 104.081 32.0868C98.9135 32.9451 94.6609 35.4678 91.5901 38.9591L90.3943 31.7089C89.5107 26.1047 84.7714 22.2619 79.0682 23.2226C78.4894 23.3201 77.9354 23.4605 77.4082 23.6399C75.4633 14.091 66.9024 6.38757 55.9805 8.16924C52.0255 8.82288 48.6455 10.5232 45.979 12.9105L45.2359 8.6336C44.3523 3.02944 39.613 -0.813409 33.9098 0.147304Z" fill="white"/>
<path d="M32.6799 32.4658C33.9984 40.4762 29.6803 47.7614 21.6375 49.113C13.5617 50.4316 7.16702 44.9594 5.84853 36.916C4.49707 28.9056 8.81514 21.6204 16.8909 20.3018C24.9337 18.9503 31.3614 24.4554 32.6799 32.4658ZM13.7924 35.5975C14.3858 39.2895 16.8579 42.0256 20.3849 41.4322C23.9119 40.8718 25.3293 37.4435 24.7359 33.7844C24.1426 30.0924 21.7034 27.3563 18.1435 27.9496C14.6165 28.51 13.1662 31.9054 13.7924 35.5975Z" fill="#00DC4B"/>
<path d="M31.4932 10.478C31.0977 8.17046 32.4491 6.06072 34.7895 5.66514C37.1298 5.26957 39.0746 6.85187 39.4372 9.1594L44.6122 40.5088C45.0078 42.8163 43.6563 44.9261 41.316 45.3217C38.9757 45.6843 37.0309 44.1349 36.6683 41.8274L31.4932 10.478Z" fill="#00DC4B"/>
<path d="M54.3361 31.542C54.6328 33.2232 56.3468 35.7945 61.456 34.9374C65.3785 34.2781 67.3892 31.3772 69.2351 31.0805C71.0151 30.7838 72.7621 31.9046 73.1246 33.9485C73.7509 37.8383 67.6859 41.4644 61.6538 42.4533C53.0836 43.8708 46.6559 38.3657 45.3374 30.3553C44.0519 22.7075 48.7325 14.9938 56.9072 13.6422C64.7852 12.3566 70.9162 18.0924 72.0699 25.048C72.5643 27.85 71.3117 28.74 68.7407 29.1686L54.3361 31.542ZM63.7634 24.3887C63.4667 22.6086 60.9286 19.9385 57.7972 20.4659C54.6987 20.9604 53.1495 24.3228 53.4461 26.1029L63.7634 24.3887Z" fill="#00DC4B"/>
<path d="M77.4756 59.1668C79.0248 68.298 74.0805 76.6381 64.851 78.1545C55.6216 79.6708 48.3039 73.4075 46.7877 64.2434C45.2714 55.0792 50.2157 46.7721 59.4122 45.2557C68.6417 43.7393 75.9593 50.0026 77.4756 59.1668ZM55.8853 62.76C56.5775 66.9465 59.3793 70.0781 63.4007 69.4188C67.4221 68.7595 69.0702 64.8697 68.378 60.6832C67.6858 56.4967 64.884 53.3321 60.8626 54.0243C56.8412 54.6836 55.1601 58.5405 55.8853 62.76Z" fill="#0090CC"/>
<path d="M76.0253 34.0475C75.5968 31.4103 77.113 29.0039 79.783 28.5754C82.4859 28.1468 84.6944 29.9269 85.1229 32.5641L91.0891 68.3967C91.5176 71.0339 90.0013 73.4403 87.2984 73.8688C84.6284 74.2974 82.387 72.5173 81.9585 69.8801L76.0253 34.0475Z" fill="#0090CC"/>
<path d="M102.098 58.1447C102.428 60.0566 104.406 62.9575 110.24 62.0015C114.756 61.2434 116.997 57.9139 119.107 57.5843C121.151 57.2546 123.161 58.5403 123.557 60.8808C124.282 65.331 117.36 69.4516 110.471 70.6053C100.681 72.2536 93.3305 65.9573 91.8142 56.7602C90.3639 48.0245 95.7038 39.223 105.032 37.6736C114.031 36.1572 121.052 42.7502 122.337 50.6947C122.865 53.8922 121.48 54.9141 118.547 55.4086L102.098 58.1447ZM112.844 49.9694C112.482 47.9256 109.581 44.8599 106.021 45.4533C102.461 46.0466 100.681 49.8705 101.044 51.9144L112.844 49.9694Z" fill="#0090CC"/>
<path d="M133.05 57.5513C135.786 57.0898 138.522 59.0347 138.95 61.7708C139.412 64.5728 137.434 67.2429 134.698 67.7044C131.962 68.1659 129.259 66.254 128.765 63.452C128.336 60.7159 130.314 58.0128 133.05 57.5513Z" fill="#0090CC"/>
<path d="M123.128 26.3008C122.7 23.6637 124.216 21.2572 126.886 20.8287C129.589 20.3672 131.765 22.1802 132.226 24.7845L136.247 48.9805C136.676 51.6177 135.16 54.0241 132.49 54.4527C129.82 54.9142 127.578 53.1011 127.15 50.4969L123.128 26.3008Z" fill="#0090CC"/>
</svg>
