<?xml version="1.0" standalone="no"?>
<!DOCTYPE svg PUBLIC "-//W3C//DTD SVG 20010904//EN"
 "http://www.w3.org/TR/2001/REC-SVG-20010904/DTD/svg10.dtd">
<svg version="1.0" xmlns="http://www.w3.org/2000/svg"
 width="2019.000000pt" height="1772.000000pt" viewBox="0 0 2019.000000 1772.000000"
 preserveAspectRatio="xMidYMid meet">

<g transform="translate(0.000000,1772.000000) scale(0.100000,-0.100000)"
fill="#000000" stroke="none">
<path d="M0 16205 l0 -1515 450 0 450 0 2 1063 3 1062 9174 3 c6774 1 9177 -1
9187 -9 12 -10 14 -192 14 -1065 l0 -1054 445 0 445 0 0 1515 0 1515 -10085 0
-10085 0 0 -1515z"/>
<path d="M6100 14270 l0 -400 390 0 390 0 0 400 0 400 -390 0 -390 0 0 -400z"/>
<path d="M13690 13475 l0 -1075 410 0 410 0 0 1075 0 1075 -410 0 -410 0 0
-1075z"/>
<path d="M30 8420 l0 -4940 440 0 440 0 0 2865 0 2865 2120 0 2120 0 0 2075 0
2075 -2560 0 -2560 0 0 -4940z m4320 2867 c0 -985 -3 -1286 -12 -1295 -9 -9
-403 -12 -1710 -12 l-1698 0 0 1295 0 1295 1710 0 1710 0 0 -1283z"/>
<path d="M6073 13353 c-10 -4 -13 -428 -13 -2074 l0 -2069 408 2 407 3 0 2070
0 2070 -395 2 c-217 1 -401 -1 -407 -4z"/>
<path d="M7715 13354 c-6 -3 -9 -140 -8 -391 l3 -388 312 -3 312 -2 72 -73
c40 -39 125 -121 188 -182 103 -98 220 -213 354 -351 24 -24 47 -44 51 -44 4
0 125 -116 268 -257 144 -142 286 -280 317 -308 31 -27 56 -56 56 -63 0 -13
-12 -27 -82 -99 -14 -16 -99 -98 -188 -183 -88 -85 -351 -344 -583 -575 -233
-231 -435 -428 -449 -437 -25 -16 -58 -18 -328 -18 l-300 0 0 -369 c0 -203 3
-376 6 -385 5 -14 60 -16 515 -16 334 0 509 3 509 10 0 6 340 350 755 765
l755 755 140 -142 c77 -77 150 -154 162 -170 13 -16 42 -48 65 -71 23 -23 170
-169 325 -325 347 -347 394 -394 410 -408 7 -6 63 -64 123 -129 61 -65 147
-155 193 -201 l82 -84 520 0 520 0 0 385 0 385 -325 0 c-210 0 -325 4 -325 10
0 6 -5 10 -10 10 -13 0 -1290 1276 -1290 1289 0 5 9 13 20 16 11 3 20 13 20
20 0 8 118 134 263 280 144 147 298 304 342 351 44 46 170 175 280 287 110
111 225 230 255 264 l55 63 358 0 357 0 0 395 0 395 -524 0 -523 0 -299 -296
c-164 -163 -310 -304 -324 -313 -14 -9 -34 -26 -45 -39 -11 -12 -109 -111
-218 -220 -239 -238 -308 -307 -324 -324 -6 -7 -53 -51 -104 -98 -51 -47 -114
-106 -140 -132 -27 -27 -51 -48 -54 -48 -8 0 -469 447 -677 657 -15 16 -205
205 -421 421 l-394 392 -509 -1 c-280 0 -513 -2 -519 -5z"/>
<path d="M15240 11285 l0 -2075 410 0 410 0 0 1680 0 1680 1645 -2 1645 -3 3
-1675 2 -1675 408 -3 407 -2 0 2075 0 2075 -2465 0 -2465 0 0 -2075z"/>
<path d="M1830 6095 l0 -2645 400 0 400 0 0 2645 0 2645 -400 0 -400 0 0
-2645z"/>
<path d="M3590 5525 l0 -2075 2465 0 2465 0 0 2075 0 2075 -2465 0 -2465 0 0
-2075z m4111 1251 c2 -2 3 -567 1 -1255 l-2 -1251 -1653 2 -1652 3 -3 1253 -2
1252 1653 0 c910 0 1656 -2 1658 -4z"/>
<path d="M9380 6796 l0 -804 178 -179 c97 -98 233 -238 302 -312 69 -73 131
-138 138 -144 8 -7 232 -230 498 -497 266 -267 487 -489 493 -494 5 -4 22 -21
37 -36 16 -15 74 -75 129 -134 55 -59 244 -251 420 -427 l320 -319 1207 0
1208 0 0 2075 0 2075 -405 0 -405 0 -2 -1662 -3 -1663 -634 -3 -635 -2 -252
252 c-138 139 -376 375 -529 523 -152 149 -289 282 -303 298 -15 15 -53 53
-84 85 -98 97 -109 108 -169 168 -31 33 -191 191 -353 353 l-296 295 0 678 0
678 -430 0 -430 0 0 -804z"/>
<path d="M15240 5525 l0 -2075 2465 0 2465 0 0 410 0 410 -836 0 c-886 0 -868
-1 -796 45 17 11 31 25 32 30 0 15 245 265 259 265 6 0 11 5 11 11 0 6 193
205 429 442 235 238 468 474 517 525 49 52 122 127 163 167 84 83 77 76 159
159 l62 64 0 811 0 811 -2465 0 -2465 0 0 -2075z m4110 1001 l0 -254 -97 -95
c-54 -53 -111 -106 -128 -119 -16 -12 -32 -26 -33 -31 -2 -4 -17 -20 -33 -35
-24 -22 -110 -107 -158 -156 -47 -48 -166 -167 -248 -248 -54 -54 -125 -124
-158 -158 -73 -73 -99 -99 -173 -172 -31 -32 -62 -63 -68 -70 -7 -7 -65 -62
-130 -123 -65 -60 -273 -264 -462 -452 l-343 -343 -629 0 -630 0 0 1255 0
1255 1645 0 1645 0 0 -254z"/>
<path d="M13170 2780 c0 -5 9 -10 20 -10 11 0 20 5 20 10 0 6 -9 10 -20 10
-11 0 -20 -4 -20 -10z"/>
<path d="M15536 2755 c-3 -9 0 -15 9 -15 8 0 15 7 15 15 0 8 -4 15 -9 15 -5 0
-11 -7 -15 -15z"/>
<path d="M0 1115 l0 -1115 10085 0 10085 0 0 1115 0 1115 -445 0 -445 0 0
-654 c0 -537 -2 -656 -14 -665 -10 -8 -2413 -10 -9187 -9 l-9174 3 -3 663 -2
662 -450 0 -450 0 0 -1115z"/>
</g>
</svg>
