<svg xml:space="preserve" style="enable-background:new 0 0 794.26 794.27;" viewBox="0 0 794.26 794.27" y="0px" x="0px" xmlns:xlink="http://www.w3.org/1999/xlink" xmlns="http://www.w3.org/2000/svg" id="Layer_1" version="1.1">
<style type="text/css">
	.st0{fill:#014457;}
	.st1{fill-rule:evenodd;clip-rule:evenodd;fill:#FFFFFF;}
	.st2{fill:#FFFFFF;}
</style>
<g>
	<path d="M397.14,794.27C178.17,794.27,0,616.11,0,397.14C0,178.15,178.17,0,397.14,0
		c218.97,0,397.12,178.15,397.12,397.14C794.26,616.11,616.11,794.27,397.14,794.27z" class="st0"></path>
</g>
<g>
	<g>
		<path d="M382.75,92.76c-7.02,3.84-14.18,7.33-20.9,11.64c-9.93,6.38-18.99,13.63-25.46,23.75
			c-5.82,9.11-7.93,18.97-6.58,29.67c1.5,11.89,6.7,22.33,12.97,32.24c8.44,13.34,18.87,25.15,28.88,37.26
			c6.17,7.46,12.5,14.84,16.33,23.93c6.4,15.06,3.87,28.94-5.83,41.64c-7.06,9.22-16.35,15.45-27.7,18.02
			c-20.53,4.7-38.39-0.31-52.76-15.99c-9.61-10.5-16.11-22.91-21.03-36.16c-5.8-15.66-8.09-31.9-7.33-48.58
			c0.68-14.88,4.04-29.15,9.84-42.93c7.1-16.9,17.58-31.37,31.11-43.52c12.28-11.03,26.25-19.44,41.99-24.84
			c8.05-2.75,16.23-4.7,24.6-5.96C381.52,92.86,382.13,92.82,382.75,92.76z" class="st1"></path>
	</g>
	<g>
		<path d="M366.8,118.98c-4.06,8.91-6.36,18.02-4.8,27.79c1.8,11.29,8.01,20.11,16.12,27.76
			c5.79,5.45,12.46,9.77,18.76,14.58c11.82,9.06,23.41,18.38,34.11,28.77c12.53,12.19,23.98,25.19,30.95,41.53
			c5.4,12.67,6.77,25.53,2.19,38.72c-3.81,10.98-10.67,19.96-18.96,27.91c-1.22,1.21-2.5,2.33-3.75,3.51
			c-1.25,1.13-2.5,2.29-3.95,3.62c0.62,0.07,0.83,0.15,0.98,0.12c18.76-6.47,34.97-17.02,48.66-31.27
			c11.92-12.41,20.94-26.77,26.83-43.04c2.67-7.39,4.84-14.89,5.9-22.68c1.19-6.88,1.19-29.9,1.19-29.9
			c-0.55-12.76-3.66-24.99-8.42-36.73c-7.95-19.55-20.05-36.09-36.42-49.56c-9.35-7.67-19.53-13.95-30.63-18.58
			c-15.31-6.38-27.79-9.66-44.46-9.5C401.12,92.02,378.63,93.14,366.8,118.98z" class="st1"></path>
	</g>
</g>
<g>
	<path d="M302,488.98h-26.63v-147H302V488.98z" class="st2"></path>
</g>
<g>
	<path d="M541.08,488.98h-26.04v-10.93c-7.28,8.99-17.15,13.48-29.6,13.48c-13.68,0-25.09-4.97-34.2-14.91
		c-9.12-9.94-13.68-22.32-13.68-37.15c0-14.83,4.56-27.23,13.68-37.15c9.12-9.94,20.52-14.91,34.2-14.91
		c12.52,0,22.38,4.53,29.6,13.57v-10.92h26.04V488.98z M490.35,412.22c-7.63,0-13.79,2.6-18.48,7.81c-4.7,5.2-7.05,11.69-7.05,19.44
		c0,7.76,2.35,14.24,7.05,19.45c4.69,5.21,10.85,7.81,18.48,7.81c7.55,0,13.69-2.57,18.42-7.71c4.72-5.14,7.1-11.65,7.1-19.55
		c0-7.9-2.38-14.41-7.1-19.54C504.04,414.79,497.9,412.22,490.35,412.22z" class="st2"></path>
</g>
<g>
	<path d="M622.74,387.41c5.3,0,6,0.32,9.95,1.76l0.06,25.69c-7.16-1.75-10.25-2.02-16.24-2.02
		c-6.33,0-11.38,1.91-15.17,5.77c-3.76,3.84-5.66,9.34-5.66,16.48v53.9h-26.64v-98.92h26.71v10.81
		C601.74,391.9,610.16,387.41,622.74,387.41z" class="st2"></path>
</g>
<g>
	<path d="M301.89,597.62h-26.65V498.7h26.65V597.62z" class="st2"></path>
</g>
<g>
	<path d="M248.43,633.58c6.57,0,11.81,2.12,15.71,6.36l-5.95,5.83c-2.52-2.9-5.86-4.35-10-4.35
		c-3.81,0-6.94,1.27-9.4,3.8c-2.45,2.54-3.69,5.82-3.69,9.84c0,4.12,1.23,7.45,3.7,9.98c2.47,2.53,5.55,3.79,9.23,3.79
		c3.35,0,6.02-0.78,7.99-2.34c1.98-1.57,3.24-3.83,3.79-6.81h-10.53v-6.89h19.06c0.08,0.7,0.12,1.49,0.12,2.34
		c0,4.12-0.87,7.82-2.61,11.08c-1.73,3.26-4.14,5.79-7.22,7.6c-3.07,1.81-6.55,2.71-10.41,2.71c-2.29,0-4.51-0.31-6.66-0.94
		c-2.15-0.62-4.13-1.54-5.93-2.77c-1.81-1.23-3.39-2.7-4.75-4.39c-1.36-1.71-2.43-3.7-3.19-6c-0.76-2.3-1.14-4.75-1.14-7.36
		c0-3.07,0.55-5.95,1.64-8.62c1.1-2.67,2.61-4.94,4.52-6.82c1.91-1.87,4.23-3.35,6.94-4.43
		C242.37,634.12,245.3,633.58,248.43,633.58z" class="st2"></path>
	<path d="M248.23,677.33c-2.37,0-4.69-0.33-6.89-0.97c-2.23-0.64-4.3-1.61-6.16-2.88c-1.85-1.26-3.52-2.8-4.93-4.56
		c-1.43-1.79-2.55-3.9-3.32-6.25c-0.78-2.37-1.18-4.93-1.18-7.62c0-3.17,0.57-6.17,1.7-8.93c1.13-2.76,2.72-5.15,4.71-7.1
		c1.98-1.95,4.41-3.49,7.21-4.61c2.81-1.11,5.86-1.67,9.08-1.67c6.78,0,12.27,2.23,16.32,6.62l0.54,0.59l-7.14,7l-0.57-0.66
		c-2.35-2.7-5.5-4.07-9.38-4.07c-3.61,0-6.49,1.16-8.81,3.55c-2.29,2.37-3.45,5.5-3.45,9.27c0,3.88,1.17,7.04,3.46,9.41
		c2.32,2.38,5.15,3.54,8.65,3.54c3.15,0,5.67-0.73,7.48-2.16c1.61-1.28,2.69-3.03,3.28-5.34h-10.33v-8.54h20.62l0.08,0.73
		c0.08,0.73,0.12,1.55,0.12,2.43c0,4.24-0.91,8.1-2.71,11.47c-1.79,3.38-4.32,6.04-7.52,7.93
		C255.88,676.39,252.23,677.33,248.23,677.33z M248.43,634.4c-3.01,0-5.86,0.52-8.47,1.55c-2.59,1.03-4.83,2.47-6.66,4.25
		c-1.83,1.79-3.29,3.99-4.34,6.55c-1.05,2.56-1.58,5.35-1.58,8.31c0,2.5,0.37,4.9,1.09,7.1c0.72,2.17,1.74,4.1,3.05,5.74
		c1.31,1.63,2.85,3.05,4.57,4.23c1.72,1.18,3.63,2.07,5.69,2.66c2.06,0.61,4.22,0.91,6.43,0.91c3.71,0,7.08-0.87,10-2.59
		c2.93-1.73,5.26-4.18,6.91-7.28c1.67-3.13,2.51-6.74,2.51-10.7c0-0.53-0.02-1.04-0.05-1.52h-17.48v5.25h10.7l-0.18,0.97
		c-0.59,3.17-1.96,5.62-4.09,7.3c-2.11,1.67-4.97,2.52-8.5,2.52c-3.91,0-7.21-1.36-9.82-4.04c-2.61-2.68-3.93-6.22-3.93-10.55
		c0-4.21,1.32-7.71,3.92-10.41c2.61-2.69,5.97-4.05,9.99-4.05c4.06,0,7.43,1.34,10.03,3.99l4.76-4.67
		C259.32,636.26,254.43,634.4,248.43,634.4z" class="st2"></path>
</g>
<g>
	<path d="M496.26,675.77h-27.18v-41.42h26.97v7.57h-19.72v9.18h18.81v7.58h-18.81v9.52h19.93V675.77z" class="st2"></path>
	<path d="M497.08,676.59h-28.82v-43.06h28.61v9.21h-19.72v7.54h18.81v9.22h-18.81v7.87h19.93V676.59z M469.9,674.94
		h25.53v-5.93h-19.93v-11.16h18.81v-5.93h-18.81v-10.83h19.72v-5.92H469.9V674.94z" class="st2"></path>
</g>
<g>
	<path d="M622.74,495.63c5.3,0,6,0.32,9.95,1.75l0.06,25.69c-7.16-1.75-10.25-2.02-16.24-2.02
		c-6.33,0-11.38,1.92-15.17,5.77c-3.76,3.84-5.66,9.34-5.66,16.48v53.9h-26.64v-98.92h26.71v10.82
		C601.74,500.12,610.16,495.63,622.74,495.63z" class="st2"></path>
</g>
<g>
	<path d="M229.05,495.63c5.3,0,6,0.32,9.95,1.75l0.06,25.69c-7.16-1.75-10.26-2.02-16.24-2.02
		c-6.33,0-11.38,1.92-15.17,5.77c-3.76,3.84-5.66,9.34-5.66,16.48v53.9h-26.64v-98.92h26.64v10.82
		C207.98,500.12,216.47,495.63,229.05,495.63z" class="st2"></path>
</g>
<g>
	<path d="M234.29,456.69l-0.17-0.14c-6.14,6.59-13.23,9.88-21.32,9.88c-6.92,0-12.74-2.48-17.41-7.46
		c-4.67-5-7.02-11.48-7.02-19.5c0-8.01,2.36-14.51,7.06-19.5c4.73-4.98,10.54-7.47,17.48-7.47c7.82,0,14.78,3.27,20.91,9.8
		c0,0,0,0,20.27-13.91c-0.77-1.27-1.3-1.92-1.3-1.92l0.02-0.03c-4.52-5.92-10.12-10.49-16.82-13.68c-6.69-3.2-14.15-4.82-22.37-4.82
		c-15.49,0-28.04,4.85-37.67,14.55c-9.63,9.7-14.44,22.03-14.44,36.97c0,14.95,4.8,27.27,14.44,36.96
		c9.63,9.71,22.18,14.55,37.67,14.55c16.57,0,29.67-6.12,39.3-18.39c0,0,0.71-0.83,1.48-2.09
		C238.2,459.38,234.95,457.14,234.29,456.69z" class="st2"></path>
</g>
<g>
	<g>
		<path d="M422.62,468.44c-7.79,13.19-24.02,22.54-43.71,22.54c-28.96,0-50.01-20.28-50.01-51.78
			c0-31.7,20.5-51.8,50.01-51.8c28.77,0,49.09,19.74,49.09,49.62c0,3.25-0.18,6.51-0.72,9.77h-72.84
			c1.26,14.85,12.32,21.29,24.91,21.29c10.8,0,18.67-7.76,22.87-11.65 M354.62,429.78h47.3c-0.36-13.22-10.79-21.54-23.74-21.54
			C366.13,408.24,356.6,416.02,354.62,429.78z" class="st2"></path>
	</g>
</g>
<g>
	<g>
		<path d="M533.49,577.41c-7.79,13.19-24.02,22.55-43.71,22.55c-28.96,0-50-20.29-50-51.79c0-31.68,20.5-51.78,50-51.78
			c28.77,0,49.09,19.74,49.09,49.61c0,3.26-0.18,6.52-0.72,9.77h-72.84c1.26,14.86,12.32,21.29,24.91,21.29
			c10.79,0,18.67-7.76,22.87-11.65 M465.49,538.75h47.3c-0.36-13.22-10.79-21.55-23.74-21.55C477,517.2,467.47,524.99,465.49,538.75
			z" class="st2"></path>
	</g>
</g>
<g>
	<g>
		<path d="M353.63,498.81l24.97,75.81l24.97-75.81h26.58l-36.56,98.81h-30.32l-36.38-98.81H353.63z" class="st2"></path>
	</g>
</g>
<g>
	<path d="M335.08,667.89h-16.45l-2.72,7.87h-8.71l14.86-41.38h9.65l14.85,41.38h-8.76L335.08,667.89z M326.86,643.98
		l-5.98,17.28h11.96L326.86,643.98z" class="st2"></path>
	<path d="M347.73,676.58h-10.51l-2.72-7.87h-15.28l-2.72,7.87h-10.46l15.45-43.02h10.81L347.73,676.58z M338.39,674.94
		h7.01l-14.26-39.74h-8.5l-14.27,39.74h6.96l2.72-7.87h17.62L338.39,674.94z M333.99,662.08h-14.26l7.13-20.61L333.99,662.08z
		 M322.03,660.43h9.65l-4.83-13.95L322.03,660.43z" class="st2"></path>
</g>
<g>
	<path d="M385.3,633.58h9.42l13.15,30.72L421,633.58h9.35v41.31h-8.28v-26.87l-11.07,26.87h-6.27l-11.13-26.87v26.87
		h-8.29V633.58z" class="st2"></path>
	<path d="M431.17,675.72h-9.93v-23.53l-9.7,23.53h-7.37l-9.76-23.55v23.55h-9.93v-42.96h10.78l0.21,0.5l12.39,28.95
		l12.59-29.46h10.71V675.72z M422.88,674.07h6.64V634.4h-7.99l-13.68,31.99l-13.69-31.99h-8.05v39.67h6.65v-30.18l12.5,30.18h5.18
		l12.44-30.2V674.07z" class="st2"></path>
</g>
<g>
	<path d="M550.58,677.43c-8.99,0-15.94-4.72-16.07-12.91h9.31c0.25,3.47,2.54,5.77,6.57,5.77c4.1,0,6.52-2.17,6.52-5.27
		c0-9.36-22.33-3.72-22.27-19.42c0-7.81,6.33-12.53,15.26-12.53c8.87,0,14.94,4.53,15.51,12.35h-9.56c-0.19-2.85-2.48-5.09-6.2-5.15
		c-3.41-0.13-5.96,1.55-5.96,5.09c0,8.68,22.22,3.85,22.22,19.11C565.91,671.28,560.45,677.43,550.58,677.43z" class="st2"></path>
	<path d="M550.58,678.25c-9.97,0-16.76-5.51-16.89-13.72l-0.01-0.84h10.92l0.05,0.77c0.22,3.18,2.32,5,5.75,5
		c3.51,0,5.7-1.71,5.7-4.45c0-3.29-3.2-4.39-8.42-5.91c-6.19-1.79-13.89-4.03-13.85-13.52c0-7.98,6.46-13.34,16.08-13.34
		c9.48,0,15.75,5.02,16.33,13.11l0.06,0.88h-11.21l-0.05-0.77c-0.17-2.61-2.28-4.33-5.39-4.38l-0.35-0.01
		c-1.43,0-4.78,0.42-4.78,4.27c0,2.97,3.12,4.06,8.21,5.59c6.24,1.87,14.01,4.21,14.01,13.52
		C566.74,671.11,561.68,678.25,550.58,678.25z M535.38,665.35c0.54,6.87,6.41,11.26,15.21,11.26c9.97,0,14.51-6.3,14.51-12.14
		c0-8.09-6.53-10.05-12.84-11.95c-4.82-1.44-9.37-2.82-9.37-7.16c0-3.65,2.46-5.91,6.42-5.91l0.39,0.01c3.65,0.06,6.33,2.1,6.9,5.15
		h7.92c-0.89-6.72-6.28-10.7-14.6-10.7c-8.77,0-14.44,4.6-14.44,11.71c-0.03,8.24,6.42,10.12,12.66,11.93
		c4.94,1.44,9.61,2.79,9.61,7.49c0,3.71-2.88,6.09-7.34,6.09c-4,0-6.73-2.19-7.3-5.77H535.38z" class="st2"></path>
</g>
</svg>
