<svg width="40" height="32" viewBox="0 0 40 32" fill="none" xmlns="http://www.w3.org/2000/svg">
<path fill-rule="evenodd" clip-rule="evenodd" d="M35.3734 32H4.62667C3.39286 31.9919 2.21287 31.4946 1.34543 30.6172C0.477988 29.7398 -0.00597589 28.5538 5.57093e-05 27.32V8.33346C-0.00597589 7.09964 0.477988 5.91371 1.34543 5.03627C2.21287 4.15884 3.39286 3.66158 4.62667 3.65347H10.8933L11.4535 1.7736C11.5667 1.26585 11.851 0.812317 12.2588 0.489424C12.6667 0.16653 13.1732 -0.00617329 13.6934 0.000168638H26.3066C26.8277 0.00399922 27.3326 0.181961 27.7409 0.5057C28.1492 0.829438 28.4374 1.28048 28.5599 1.78694L28.5732 1.85335L29.0667 3.65347H35.3734C36.6064 3.66403 37.7851 4.1623 38.652 5.0392C39.5189 5.91611 40.0035 7.10038 40 8.33346V27.32C40.0035 28.5531 39.5189 29.7374 38.652 30.6143C37.7851 31.4912 36.6064 31.9894 35.3734 32ZM4.62667 5.21336C4.21952 5.2158 3.81697 5.2987 3.44178 5.45685C3.06659 5.615 2.7262 5.84547 2.44016 6.13523C2.15411 6.42498 1.92809 6.76812 1.77479 7.14531C1.62149 7.52251 1.54379 7.92631 1.5466 8.33346V27.32C1.54379 27.7272 1.62149 28.131 1.77479 28.5082C1.92809 28.8854 2.15411 29.2285 2.44016 29.5182C2.7262 29.808 3.06659 30.0385 3.44178 30.1966C3.81697 30.3548 4.21952 30.4377 4.62667 30.4401H35.3734C35.7805 30.4377 36.1831 30.3548 36.5583 30.1966C36.9334 30.0385 37.2738 29.808 37.5599 29.5182C37.8459 29.2285 38.0719 28.8854 38.2252 28.5082C38.3785 28.131 38.4562 27.7272 38.4534 27.32V8.33346C38.4562 7.92631 38.3785 7.52251 38.2252 7.14531C38.0719 6.76812 37.8459 6.42498 37.5599 6.13523C37.2738 5.84547 36.9334 5.615 36.5583 5.45685C36.1831 5.2987 35.7805 5.2158 35.3734 5.21336H27.9066L27.0667 2.17333C27.0283 2.00009 26.932 1.84532 26.7939 1.73388C26.6559 1.62244 26.4841 1.56099 26.3066 1.56006H13.6934C13.5154 1.55902 13.3426 1.61951 13.2041 1.73128C13.0656 1.84304 12.9699 1.99917 12.9333 2.17333L12.0401 5.21336H4.62667ZM20 27.28C18.0361 27.3054 16.1091 26.7463 14.4639 25.6735C12.8187 24.6008 11.5296 23.0629 10.7608 21.2556C9.99194 19.4483 9.77808 17.4531 10.1462 15.5239C10.5143 13.5946 11.4479 11.8182 12.8282 10.421C14.2085 9.02378 15.9732 8.06884 17.8978 7.67721C19.8224 7.28558 21.8198 7.47508 23.6364 8.2218C25.453 8.96853 27.0065 10.2386 28.0993 11.8705C29.1921 13.5025 29.7749 15.4228 29.7734 17.3868C29.7855 19.9936 28.7633 22.4987 26.9313 24.3532C25.0993 26.2077 22.6068 27.2602 20 27.28ZM20 9.04016C18.3467 9.02034 16.7246 9.4923 15.3402 10.3963C13.9557 11.3002 12.8714 12.5953 12.2246 14.117C11.5779 15.6386 11.3978 17.3183 11.7077 18.9425C12.0176 20.5666 12.8033 22.062 13.9649 23.2387C15.1265 24.4153 16.6118 25.2201 18.2318 25.5508C19.8518 25.8816 21.5336 25.7232 23.0635 25.0961C24.5934 24.4689 25.9022 23.4014 26.8239 22.0287C27.7456 20.656 28.2385 19.0402 28.2399 17.3868C28.2516 15.188 27.3908 13.0743 25.846 11.5095C24.3013 9.94478 22.1988 9.05673 20 9.04016ZM34.3867 8.1069C34.1008 8.1016 33.8197 8.18141 33.5794 8.33639C33.3391 8.49136 33.1505 8.7144 33.0374 8.97701C32.9243 9.23962 32.8918 9.52992 32.9443 9.81099C32.9968 10.0921 33.1321 10.3511 33.3323 10.5551C33.5326 10.7592 33.789 10.8991 34.069 10.9568C34.349 11.0146 34.6399 10.9878 34.9046 10.8797C35.1693 10.7715 35.3959 10.5867 35.5553 10.3494C35.7148 10.112 35.8001 9.8326 35.8001 9.54667C35.8002 9.16933 35.652 8.80718 35.3877 8.53788C35.1234 8.26859 34.764 8.11388 34.3867 8.1069Z" fill="#DDDDDD"/>
</svg>
